<?xml version="1.0" encoding="utf-8"?>
<!-- Generator: Adobe Illustrator 22.0.1, SVG Export Plug-In . SVG Version: 6.00 Build 0)  -->
<svg version="1.1" xmlns="http://www.w3.org/2000/svg" xmlns:xlink="http://www.w3.org/1999/xlink" x="0px" y="0px"
	 viewBox="0 0 1200 1200" style="enable-background:new 0 0 1200 1200;" xml:space="preserve">
<style type="text/css">
	.st0{display:none;}
	.st1{display:inline;fill:#FFFFFF;}
	.st2{fill:#EAEAEA;}
	.st3{display:none;fill:#EAEAEA;}
	.st4{fill:#D67412;}
	.st5{fill:#FC842C;}
	.st6{fill:#F99943;}
	.st7{fill:#BC5800;}
	.st8{fill:#AA5000;}
	.st9{fill:#DFDFDF;}
	.st10{fill:#C3C3C3;}
	.st11{fill:#FFFFFF;}
	.st12{fill:#00D7FF;}
	.st13{display:inline;fill:#00D7FF;}
	.st14{display:inline;}
	.st15{fill:#FF7B00;}
	.st16{fill:#FF9557;}
</style>
<g id="background" class="st0">
	<rect x="0" class="st1" width="1200" height="1200"/>
</g>
<g id="icon">
	<path class="st2" d="M931.4,628h127.2c-1.4-6.4-6.3-11.4-12.6-13c0.4-1.4,0.5-2.9,0.5-4.4c0-9.9-8-18-18-18c-2.8,0-5.5,0.7-7.9,1.8
		c-3.8-8.4-12.3-14.3-22.1-14.3c-10.5,0-19.4,6.6-22.8,15.9c-3-2-6.5-3.1-10.4-3.1c-10.4,0-18.9,8.5-18.9,18.9
		c0,0.9,0.1,1.8,0.2,2.7C939.1,615.3,933,620.8,931.4,628z"/>
	<path class="st2" d="M185.9,679.6h134.4c-1.5-6.7-6.7-12.1-13.3-13.7c0.4-1.5,0.6-3,0.6-4.7c0-10.5-8.5-19-19-19
		c-3,0-5.8,0.7-8.3,1.9c-4-8.9-13-15.1-23.4-15.1c-11.1,0-20.5,7-24.1,16.8c-3.1-2.1-6.9-3.3-11-3.3c-11,0-20,8.9-20,20
		c0,1,0.1,1.9,0.2,2.8C194.1,666.1,187.6,671.9,185.9,679.6z"/>
	<path class="st2" d="M915,319.1H1075c-1.8-8-8-14.4-15.9-16.3c0.4-1.8,0.7-3.6,0.7-5.5c0-12.5-10.1-22.6-22.6-22.6
		c-3.6,0-6.9,0.8-9.9,2.3c-4.8-10.6-15.5-18-27.8-18c-13.2,0-24.4,8.3-28.7,20c-3.7-2.5-8.2-3.9-13-3.9c-13.1,0-23.8,10.7-23.8,23.8
		c0,1.1,0.1,2.3,0.2,3.4C924.7,303,917,310,915,319.1z"/>
	<path class="st2" d="M127,399.5h145.8c-1.6-7.3-7.2-13.1-14.5-14.9c0.4-1.6,0.6-3.3,0.6-5c0-11.4-9.2-20.6-20.6-20.6
		c-3.2,0-6.3,0.7-9,2.1c-4.4-9.6-14.1-16.3-25.3-16.3c-12,0-22.2,7.6-26.1,18.2c-3.4-2.2-7.5-3.5-11.9-3.5c-12,0-21.7,9.7-21.7,21.7
		c0,1,0.1,2.1,0.2,3.1C135.9,384.9,128.9,391.2,127,399.5z"/>
	<path class="st2" d="M141.3,1028.9h111.9c-1.2-5.6-5.6-10-11.1-11.4c0.3-1.2,0.5-2.5,0.5-3.9c0-8.7-7.1-15.8-15.8-15.8
		c-2.5,0-4.8,0.6-6.9,1.6c-3.4-7.4-10.8-12.5-19.5-12.5c-9.2,0-17,5.8-20,14c-2.6-1.7-5.7-2.7-9.1-2.7c-9.2,0-16.6,7.4-16.6,16.6
		c0,0.8,0.1,1.6,0.2,2.4C148.1,1017.7,142.7,1022.6,141.3,1028.9z"/>
	<path class="st3" d="M443,176.6h141.9c-1.6-7.1-7-12.7-14.1-14.5c0.4-1.6,0.6-3.2,0.6-4.9c0-11.1-9-20-20-20c-3.1,0-6.1,0.7-8.8,2
		c-4.3-9.4-13.7-15.9-24.7-15.9c-11.7,0-21.6,7.4-25.4,17.7c-3.3-2.2-7.3-3.5-11.6-3.5c-11.6,0-21.1,9.4-21.1,21.1c0,1,0.1,2,0.2,3
		C451.6,162.3,444.8,168.5,443,176.6z"/>
	<path class="st2" d="M970.9,995.6h111.9c-1.2-5.6-5.6-10-11.1-11.4c0.3-1.2,0.5-2.5,0.5-3.9c0-8.7-7.1-15.8-15.8-15.8
		c-2.5,0-4.8,0.6-6.9,1.6c-3.4-7.4-10.8-12.5-19.5-12.5c-9.2,0-17,5.8-20,14c-2.6-1.7-5.7-2.7-9.1-2.7c-9.2,0-16.6,7.4-16.6,16.6
		c0,0.8,0.1,1.6,0.2,2.4C977.7,984.3,972.3,989.2,970.9,995.6z"/>
	<g>
		<g>
			<path class="st4" d="M617.7,1029.8c-8.5,5.5-20.6,5.5-29.1,0l-129.3-83.6l-93.7-60.6c-16.8-10.8-7.1-32.4,14.5-32.4h223h223
				c21.6,0,31.3,21.5,14.5,32.4l-93.7,60.6L617.7,1029.8z"/>
			<g>
				<path class="st5" d="M539.8,1025.9c-1.6,1.9-4.1,1.9-5.7,0l-49.3-59.2l-45.2-54.2c-2.5-3.1-0.8-8.3,2.8-8.3H537h94.6
					c3.6,0,5.4,5.3,2.8,8.3l-45.2,54.2L539.8,1025.9z"/>
				<path class="st5" d="M662.3,1029.7c-1.7,2.1-4.5,2.1-6.2,0l-54.4-65.2l-49.8-59.8c-2.8-3.4-0.8-9.2,3.1-9.2h104.2h104.2
					c4,0,5.9,5.8,3.1,9.2l-49.8,59.8L662.3,1029.7z"/>
				<path class="st5" d="M602.2,1064.3c-1.4,1.7-3.6,1.7-5,0l-43.7-52.4l-40.1-48c-2.3-2.7-0.7-7.4,2.5-7.4h83.8h83.8
					c3.2,0,4.8,4.7,2.5,7.4l-40.1,48L602.2,1064.3z"/>
				<g>
					<path class="st6" d="M698.7,916h-23.9c-2.8,0-5.1-2.6-5.1-5.8c0-3.2,2.3-5.8,5.1-5.8h23.9c2.8,0,5.1,2.6,5.1,5.8
						C703.8,913.5,701.5,916,698.7,916z"/>
					<path class="st6" d="M714.6,916h-3.4c-2.8,0-5.1-2.6-5.1-5.8c0-3.2,2.3-5.8,5.1-5.8h3.4c2.8,0,5.1,2.6,5.1,5.8
						C719.7,913.5,717.4,916,714.6,916z"/>
				</g>
				<g>
					<path class="st6" d="M598,934.3h-28.2c-3.3,0-6-3-6-6.8c0-3.8,2.7-6.8,6-6.8H598c3.3,0,6,3,6,6.8
						C604,931.3,601.3,934.3,598,934.3z"/>
					<path class="st6" d="M616.8,934.3h-4c-3.3,0-6-3-6-6.8c0-3.8,2.7-6.8,6-6.8h4c3.3,0,6,3,6,6.8
						C622.8,931.3,620.1,934.3,616.8,934.3z"/>
				</g>
				<g>
					<path class="st6" d="M601.8,1025.3h-16.3c-1.9,0-3.5-1.8-3.5-3.9c0-2.2,1.6-3.9,3.5-3.9h16.3c1.9,0,3.5,1.8,3.5,3.9
						C605.3,1023.5,603.7,1025.3,601.8,1025.3z"/>
					<path class="st6" d="M612.6,1025.3h-2.3c-1.9,0-3.5-1.8-3.5-3.9c0-2.2,1.6-3.9,3.5-3.9h2.3c1.9,0,3.5,1.8,3.5,3.9
						C616.1,1023.5,614.6,1025.3,612.6,1025.3z"/>
				</g>
				<g>
					<path class="st6" d="M516.7,928.5c0,4.8-3.4,8.6-7.7,8.6h-23.2c-4.2,0-7.7-3.9-7.7-8.6l0,0c0-4.8,3.4-8.6,7.7-8.6h23.2
						C513.3,919.9,516.7,923.7,516.7,928.5L516.7,928.5z"/>
					<path class="st6" d="M534,940.9c0,4.8-3.4,8.6-7.7,8.6h-23.2c-4.2,0-7.7-3.9-7.7-8.6l0,0c0-4.8,3.4-8.6,7.7-8.6h23.2
						C530.6,932.3,534,936.1,534,940.9L534,940.9z"/>
				</g>
				<g>
					<path class="st6" d="M667.7,947.8c0-3.7-2.7-6.8-6-6.8h-18.3c-3.3,0-6,3-6,6.8l0,0c0,3.7,2.7,6.8,6,6.8h18.3
						C665,954.6,667.7,951.6,667.7,947.8L667.7,947.8z"/>
					<path class="st6" d="M681.3,938c0-3.7-2.7-6.8-6-6.8h-18.2c-3.3,0-6,3-6,6.8l0,0c0,3.7,2.7,6.8,6,6.8h18.2
						C678.6,944.8,681.3,941.8,681.3,938L681.3,938z"/>
				</g>
				<path class="st6" d="M673.9,971.2c-4,0-7.3,3.7-7.3,8.2c0,1.3,0.3,2.5,0.8,3.6h-4.8c-4,0-7.3,3.7-7.3,8.2c0,4.6,3.3,8.2,7.3,8.2
					h24.7l23.7-28.4H673.9z"/>
				<path class="st6" d="M532.2,977.1h-4.8c0.5-1.1,0.8-2.3,0.8-3.6c0-4.6-3.3-8.2-7.3-8.2h-37.2l1.2,1.5l22.4,26.9h24.9
					c4,0,7.3-3.7,7.3-8.2C539.5,980.8,536.2,977.1,532.2,977.1z"/>
				<g>
					<path class="st6" d="M608.7,966.8c0,4.3-3.1,7.7-6.9,7.7h-32c-3.8,0-6.9-3.5-6.9-7.7l0,0c0-4.3,3.1-7.7,6.9-7.7h32
						C605.7,959.1,608.7,962.5,608.7,966.8L608.7,966.8z"/>
					<path class="st6" d="M596.1,979c0-2.5,1.8-4.5,4-4.5h-15.2c2.2,0,4,2,4,4.5c0,2.5-1.8,4.5-4,4.5H600
						C597.8,983.5,596.1,981.5,596.1,979z"/>
					<path class="st6" d="M623.4,990.3c0,3.8-2.7,6.8-6,6.8h-37.9c-3.3,0-6-3-6-6.8l0,0c0-3.8,2.7-6.8,6-6.8h37.9
						C620.7,983.5,623.4,986.6,623.4,990.3L623.4,990.3z"/>
				</g>
			</g>
			<path class="st7" d="M882.2,804.9c-0.9-1.6-2.4-2.6-4.1-2.6H328.2c-1.7,0-3.2,1-4.1,2.6c-0.9,1.6-0.9,3.6-0.1,5.3l35.9,75.4
				c0.8,1.8,2.5,2.8,4.2,2.8h478.2c1.8,0,3.4-1.1,4.2-2.8l35.9-75.4C883.1,808.5,883,806.5,882.2,804.9z"/>
			<g>
				<path class="st8" d="M453.5,873.3h-46.4c-5.5,0-9.9-5-9.9-11.2c0-6.2,4.4-11.2,9.9-11.2h46.4c5.5,0,9.9,5,9.9,11.2
					C463.4,868.3,459,873.3,453.5,873.3z"/>
				<path class="st8" d="M484.4,873.3h-6.6c-5.5,0-9.9-5-9.9-11.2c0-6.2,4.4-11.2,9.9-11.2h6.6c5.5,0,9.9,5,9.9,11.2
					C494.3,868.3,489.9,873.3,484.4,873.3z"/>
			</g>
			<g>
				<path class="st8" d="M746.6,851.9H789c5,0,9.1,4.6,9.1,10.2c0,5.6-4.1,10.2-9.1,10.2h-42.4c-5,0-9.1-4.6-9.1-10.2
					C737.5,856.5,741.6,851.9,746.6,851.9z"/>
				<path class="st8" d="M718.3,851.9h6.1c5,0,9.1,4.6,9.1,10.2c0,5.6-4.1,10.2-9.1,10.2h-6.1c-5,0-9.1-4.6-9.1-10.2
					C709.2,856.5,713.3,851.9,718.3,851.9z"/>
			</g>
			<g>
				<path class="st8" d="M617.9,854.7c0,6.1-4.4,11.1-9.8,11.1h-27.5c-5.4,0-9.8-5-9.8-11.1l0,0c0-6.1,4.4-11.1,9.8-11.1H608
					C613.5,843.6,617.9,848.5,617.9,854.7L617.9,854.7z"/>
				<path class="st8" d="M644.5,866.9c0,6.3-4.6,11.5-10.2,11.5h-28.1c-5.6,0-10.2-5.1-10.2-11.5l0,0c0-6.3,4.6-11.5,10.2-11.5h28.1
					C639.9,855.4,644.5,860.6,644.5,866.9L644.5,866.9z"/>
			</g>
			<g>
				<path class="st9" d="M884.3,831.6c0,2.3-1.6,4.1-3.7,4.1H319.4c-2,0-3.7-1.8-3.7-4.1v-46.1c0-2.3,1.6-4.1,3.7-4.1h561.2
					c2,0,3.7,1.8,3.7,4.1V831.6z"/>
				<path class="st10" d="M880.6,781.4h-3.8V824c0,2.3-1.6,4.1-3.7,4.1H315.7v3.5c0,2.3,1.6,4.1,3.7,4.1h561.2c2,0,3.7-1.8,3.7-4.1
					v-46.1C884.3,783.2,882.6,781.4,880.6,781.4z"/>
				<g>
					<path class="st11" d="M369.3,805.6h-26c-3.1,0-5.6-2.8-5.6-6.3s2.5-6.3,5.6-6.3h26c3.1,0,5.6,2.8,5.6,6.3
						S372.3,805.6,369.3,805.6z"/>
					<path class="st11" d="M386.6,805.6h-3.7c-3.1,0-5.6-2.8-5.6-6.3s2.5-6.3,5.6-6.3h3.7c3.1,0,5.6,2.8,5.6,6.3
						S389.6,805.6,386.6,805.6z"/>
				</g>
			</g>
		</g>
		<g>
			<polygon class="st12" points="624.7,695.3 576.5,695.3 575.3,534.4 623.5,534.5 			"/>
			<polygon class="st12" points="599.4,664 520.4,748.9 679.6,749.2 599.4,664 520.4,748.9 679.6,749.2 			"/>
			<g>
				<path class="st12" d="M492.5,539.6c-6.2-0.4-151.5-10.5-152.2-117.3c-0.2-26.9,7.3-48.7,22.3-64.9
					c34.4-37.3,96.4-29.2,99.1-28.8l-2.7,31.1c-0.5-0.1-53.2-6.8-79,21.1c-9.3,10.2-13.8,23.7-13.7,41.5
					c0.5,77.1,126.1,85.9,127.3,85.9L492.5,539.6z"/>
				<path class="st12" d="M709.1,539.9c6.2-0.4,151.3-10,150.6-116.8c-0.2-26.9-8-48.8-23.2-65c-34.9-37.4-96.8-29.5-99.5-29.2
					l3.1,31.2c0.5-0.1,53.1-6.7,79.3,21.4c9.5,10.2,14.2,23.8,14.3,41.6c0.5,77.1-124.9,85.5-126.1,85.5L709.1,539.9z"/>
			</g>
			<path class="st12" d="M422.9,274.5c-5.5,0-10.1,4.4-10.3,9.9c-0.2,5.9-0.2,11.9-0.2,17.9c1.2,178.5,86.1,323.3,189.7,323.5
				c103.6,0.2,186.6-144.4,185.4-322.9c0-6.1-0.2-12.1-0.4-18c-0.2-5.5-4.7-9.8-10.2-9.8L422.9,274.5z"/>
			<g>
				<path class="st11" d="M482.4,490.5c-4.7,0-9.2-2.7-11.2-7.3c-16.3-37.5-26.2-81.6-28.7-127.7c-0.4-6.7,4.8-12.5,11.5-12.8
					c6.7-0.4,12.5,4.8,12.8,11.5c2.3,43.2,11.6,84.5,26.7,119.4c2.7,6.2-0.2,13.4-6.3,16C485.7,490.2,484.1,490.5,482.4,490.5z"/>
				<path class="st11" d="M454.3,336.4c-0.1,0-0.2,0-0.3,0c-6.7-0.1-12.1-5.7-11.9-12.4c0.1-3.4,0.2-6.8,0.3-10.5
					c0.3-6.7,6-11.9,12.7-11.7c6.7,0.3,11.9,6,11.7,12.7c-0.2,3.5-0.3,6.7-0.3,9.9C466.3,331.1,460.9,336.4,454.3,336.4z"/>
			</g>
			<g>
				<g>
					<g>
						<g>
							<polygon class="st11" points="514.9,548.5 515.5,548.8 555.3,523.8 561.7,570.4 562.3,570.6 621,444.7 573.6,422.7 							
								"/>
						</g>
						<g>
							<polygon class="st11" points="685.1,548.5 684.5,548.8 644.7,523.8 638.3,570.4 637.7,570.6 579,444.7 626.4,422.7 							
								"/>
						</g>
					</g>
				</g>
				
					<ellipse transform="matrix(0.7071 -0.7071 0.7071 0.7071 -113.6355 544.1256)" class="st11" cx="600" cy="409.2" rx="85.1" ry="85.1"/>
				<path class="st12" d="M669.1,409.2c0,38.1-30.9,69.1-69.1,69.1c-38.1,0-69.1-30.9-69.1-69.1c0-38.1,30.9-69.1,69.1-69.1
					C638.1,340.2,669.1,371.1,669.1,409.2z"/>
				<g>
					<g>
						<path class="st11" d="M613,452h-18.8v-62.7H587v-12.5c2.7,0,5-1.2,6.9-3.5c1.9-2.3,2.8-4.6,2.8-6.9H613V452z"/>
					</g>
				</g>
			</g>
			<path class="st12" d="M700,779.5c0,1-0.8,1.9-1.8,1.9H501.8c-1,0-1.8-0.8-1.8-1.9v-29.2c0-1,0.8-1.9,1.8-1.9h196.5
				c1,0,1.8,0.8,1.8,1.9V779.5z"/>
		</g>
	</g>
	<path class="st2" d="M668.7,966.8h147.5c-1.6-7.4-7.3-13.2-14.6-15.1c0.4-1.6,0.6-3.3,0.6-5.1c0-11.5-9.3-20.8-20.8-20.8
		c-3.3,0-6.4,0.8-9.1,2.1c-4.4-9.8-14.2-16.5-25.7-16.5c-12.1,0-22.5,7.7-26.4,18.4c-3.5-2.3-7.6-3.6-12-3.6
		c-12.1,0-21.9,9.8-21.9,21.9c0,1.1,0.1,2.1,0.2,3.1C677.7,952,670.5,958.4,668.7,966.8z"/>
	<path class="st2" d="M378.3,945.3h175.9c-1.9-8.8-8.7-15.8-17.5-18c0.5-1.9,0.8-4,0.8-6.1c0-13.7-11.1-24.8-24.8-24.8
		c-3.9,0-7.6,0.9-10.9,2.5c-5.3-11.6-17-19.7-30.6-19.7c-14.5,0-26.8,9.1-31.5,22c-4.1-2.7-9-4.3-14.3-4.3
		c-14.4,0-26.1,11.7-26.1,26.1c0,1.3,0.1,2.5,0.3,3.7C389.1,927.6,380.5,935.3,378.3,945.3z"/>
</g>
<g id="Слой_3">
</g>
</svg>
