<?xml version="1.0" encoding="utf-8"?>
<!-- Generator: Adobe Illustrator 22.0.1, SVG Export Plug-In . SVG Version: 6.00 Build 0)  -->
<svg version="1.1" xmlns="http://www.w3.org/2000/svg" xmlns:xlink="http://www.w3.org/1999/xlink" x="0px" y="0px"
	 viewBox="0 0 1200 1200" style="enable-background:new 0 0 1200 1200;" xml:space="preserve">
<style type="text/css">
	.st0{display:none;}
	.st1{display:inline;fill:#FFFFFF;}
	.st2{fill:#EAEAEA;}
	.st3{display:none;fill:#EAEAEA;}
	.st4{fill:#D67412;}
	.st5{fill:#FC842C;}
	.st6{fill:#F99943;}
	.st7{fill:#BC5800;}
	.st8{fill:#AA5000;}
	.st9{fill:#DFDFDF;}
	.st10{fill:#C3C3C3;}
	.st11{fill:#FFFFFF;}
	.st12{fill:#00D7FF;}
	.st13{display:inline;fill:#00D7FF;}
	.st14{display:inline;}
	.st15{fill:#FF7B00;}
	.st16{fill:#FF9557;}
</style>
<g id="background" class="st0">
</g>
<g id="icon">
</g>
<g id="Слой_3">
	<g>
		<path class="st2" d="M926.5,633.7h127.2c-1.4-6.4-6.3-11.4-12.6-13c0.4-1.4,0.5-2.9,0.5-4.4c0-9.9-8-18-18-18
			c-2.8,0-5.5,0.7-7.9,1.8c-3.8-8.4-12.3-14.3-22.1-14.3c-10.5,0-19.4,6.6-22.8,15.9c-3-2-6.5-3.1-10.4-3.1
			c-10.4,0-18.9,8.5-18.9,18.9c0,0.9,0.1,1.8,0.2,2.7C934.2,620.9,928.1,626.4,926.5,633.7z"/>
		<path class="st2" d="M181,685.2h134.4c-1.5-6.7-6.7-12.1-13.3-13.7c0.4-1.5,0.6-3,0.6-4.7c0-10.5-8.5-19-19-19
			c-3,0-5.8,0.7-8.3,1.9c-4-8.9-13-15.1-23.4-15.1c-11.1,0-20.5,7-24.1,16.8c-3.1-2.1-6.9-3.3-11-3.3c-11,0-20,8.9-20,20
			c0,1,0.1,1.9,0.2,2.8C189.2,671.7,182.7,677.5,181,685.2z"/>
		<path class="st2" d="M910.1,324.7h160.1c-1.8-8-8-14.4-15.9-16.3c0.4-1.8,0.7-3.6,0.7-5.5c0-12.5-10.1-22.6-22.6-22.6
			c-3.6,0-6.9,0.8-9.9,2.3c-4.8-10.6-15.5-18-27.8-18c-13.2,0-24.4,8.3-28.7,20c-3.7-2.5-8.2-3.9-13-3.9
			c-13.1,0-23.8,10.7-23.8,23.8c0,1.1,0.1,2.3,0.2,3.4C919.8,308.6,912.1,315.6,910.1,324.7z"/>
		<path class="st2" d="M122.1,405.1h145.8c-1.6-7.3-7.2-13.1-14.5-14.9c0.4-1.6,0.6-3.3,0.6-5c0-11.4-9.2-20.6-20.6-20.6
			c-3.2,0-6.3,0.7-9,2.1c-4.4-9.6-14.1-16.3-25.3-16.3c-12,0-22.2,7.6-26.1,18.2c-3.4-2.2-7.5-3.5-11.9-3.5
			c-12,0-21.7,9.7-21.7,21.7c0,1,0.1,2.1,0.2,3.1C131,390.5,123.9,396.8,122.1,405.1z"/>
		<path class="st2" d="M136.3,1034.5h111.9c-1.2-5.6-5.6-10-11.1-11.4c0.3-1.2,0.5-2.5,0.5-3.9c0-8.7-7.1-15.8-15.8-15.8
			c-2.5,0-4.8,0.6-6.9,1.6c-3.4-7.4-10.8-12.5-19.5-12.5c-9.2,0-17,5.8-20,14c-2.6-1.7-5.7-2.7-9.1-2.7c-9.2,0-16.6,7.4-16.6,16.6
			c0,0.8,0.1,1.6,0.2,2.4C143.2,1023.3,137.7,1028.2,136.3,1034.5z"/>
		<path class="st2" d="M438.1,303.8H580c-1.6-7.1-7-12.7-14.1-14.5c0.4-1.6,0.6-3.2,0.6-4.9c0-11.1-9-20-20-20c-3.1,0-6.1,0.7-8.8,2
			c-4.3-9.4-13.7-15.9-24.7-15.9c-11.7,0-21.6,7.4-25.4,17.7c-3.3-2.2-7.3-3.5-11.6-3.5c-11.6,0-21.1,9.4-21.1,21.1c0,1,0.1,2,0.2,3
			C446.7,289.5,439.9,295.7,438.1,303.8z"/>
		<path class="st2" d="M966,1001.2h111.9c-1.2-5.6-5.6-10-11.1-11.4c0.3-1.2,0.5-2.5,0.5-3.9c0-8.7-7.1-15.8-15.8-15.8
			c-2.5,0-4.8,0.6-6.9,1.6c-3.4-7.4-10.8-12.5-19.5-12.5c-9.2,0-17,5.8-20,14c-2.6-1.7-5.7-2.7-9.1-2.7c-9.2,0-16.6,7.4-16.6,16.6
			c0,0.8,0.1,1.6,0.2,2.4C972.8,989.9,967.4,994.8,966,1001.2z"/>
		<g>
			<g>
				<path class="st4" d="M612.8,1035.4c-8.5,5.5-20.6,5.5-29.1,0l-129.3-83.6l-93.7-60.6c-16.8-10.8-7.1-32.4,14.5-32.4h223h223
					c21.6,0,31.3,21.5,14.5,32.4L742,951.8L612.8,1035.4z"/>
				<g>
					<path class="st5" d="M534.9,1031.5c-1.6,1.9-4.1,1.9-5.7,0L480,972.3l-45.2-54.2c-2.5-3.1-0.8-8.3,2.8-8.3h94.6h94.6
						c3.6,0,5.4,5.3,2.8,8.3l-45.2,54.2L534.9,1031.5z"/>
					<path class="st5" d="M657.4,1035.3c-1.7,2.1-4.5,2.1-6.2,0l-54.4-65.2l-49.8-59.8c-2.8-3.4-0.8-9.2,3.1-9.2h104.2h104.2
						c4,0,5.9,5.8,3.1,9.2l-49.8,59.8L657.4,1035.3z"/>
					<path class="st5" d="M597.3,1069.9c-1.4,1.7-3.6,1.7-5,0l-43.7-52.4l-40.1-48c-2.3-2.7-0.7-7.4,2.5-7.4h83.8h83.8
						c3.2,0,4.8,4.7,2.5,7.4l-40.1,48L597.3,1069.9z"/>
					<g>
						<path class="st6" d="M693.8,921.6h-23.9c-2.8,0-5.1-2.6-5.1-5.8s2.3-5.8,5.1-5.8h23.9c2.8,0,5.1,2.6,5.1,5.8
							S696.6,921.6,693.8,921.6z"/>
						<path class="st6" d="M709.7,921.6h-3.4c-2.8,0-5.1-2.6-5.1-5.8s2.3-5.8,5.1-5.8h3.4c2.8,0,5.1,2.6,5.1,5.8
							S712.5,921.6,709.7,921.6z"/>
					</g>
					<g>
						<path class="st6" d="M593.1,939.9h-28.2c-3.3,0-6-3-6-6.8c0-3.8,2.7-6.8,6-6.8h28.2c3.3,0,6,3,6,6.8
							C599.1,936.9,596.4,939.9,593.1,939.9z"/>
						<path class="st6" d="M611.9,939.9h-4c-3.3,0-6-3-6-6.8c0-3.8,2.7-6.8,6-6.8h4c3.3,0,6,3,6,6.8
							C617.9,936.9,615.2,939.9,611.9,939.9z"/>
					</g>
					<g>
						<path class="st6" d="M596.8,1030.9h-16.3c-1.9,0-3.5-1.8-3.5-3.9s1.6-3.9,3.5-3.9h16.3c1.9,0,3.5,1.8,3.5,3.9
							S598.8,1030.9,596.8,1030.9z"/>
						<path class="st6" d="M607.7,1030.9h-2.3c-1.9,0-3.5-1.8-3.5-3.9s1.6-3.9,3.5-3.9h2.3c1.9,0,3.5,1.8,3.5,3.9
							S609.7,1030.9,607.7,1030.9z"/>
					</g>
					<g>
						<path class="st6" d="M511.8,934.1c0,4.8-3.4,8.6-7.7,8.6h-23.2c-4.2,0-7.7-3.9-7.7-8.6l0,0c0-4.8,3.4-8.6,7.7-8.6h23.2
							C508.4,925.5,511.8,929.3,511.8,934.1L511.8,934.1z"/>
						<path class="st6" d="M529.1,946.5c0,4.8-3.4,8.6-7.7,8.6h-23.2c-4.2,0-7.7-3.9-7.7-8.6l0,0c0-4.8,3.4-8.6,7.7-8.6h23.2
							C525.7,937.9,529.1,941.7,529.1,946.5L529.1,946.5z"/>
					</g>
					<g>
						<path class="st6" d="M662.8,953.4c0-3.7-2.7-6.8-6-6.8h-18.3c-3.3,0-6,3-6,6.8l0,0c0,3.7,2.7,6.8,6,6.8h18.3
							C660.1,960.2,662.8,957.2,662.8,953.4L662.8,953.4z"/>
						<path class="st6" d="M676.4,943.7c0-3.7-2.7-6.8-6-6.8h-18.2c-3.3,0-6,3-6,6.8l0,0c0,3.7,2.7,6.8,6,6.8h18.2
							C673.7,950.4,676.4,947.4,676.4,943.7L676.4,943.7z"/>
					</g>
					<path class="st6" d="M669,976.8c-4,0-7.3,3.7-7.3,8.2c0,1.3,0.3,2.5,0.8,3.6h-4.8c-4,0-7.3,3.7-7.3,8.2c0,4.6,3.3,8.2,7.3,8.2
						h24.7l23.7-28.4H669z"/>
					<path class="st6" d="M527.3,982.7h-4.8c0.5-1.1,0.8-2.3,0.8-3.6c0-4.6-3.3-8.2-7.3-8.2h-37.2l1.2,1.5l22.4,26.9h24.9
						c4,0,7.3-3.7,7.3-8.2C534.6,986.4,531.3,982.7,527.3,982.7z"/>
					<g>
						<path class="st6" d="M603.8,972.4c0,4.3-3.1,7.7-6.9,7.7h-32c-3.8,0-6.9-3.5-6.9-7.7l0,0c0-4.3,3.1-7.7,6.9-7.7h32
							C600.8,964.7,603.8,968.1,603.8,972.4L603.8,972.4z"/>
						<path class="st6" d="M591.2,984.6c0-2.5,1.8-4.5,4-4.5H580c2.2,0,4,2,4,4.5c0,2.5-1.8,4.5-4,4.5h15.2
							C592.9,989.1,591.2,987.1,591.2,984.6z"/>
						<path class="st6" d="M618.5,995.9c0,3.8-2.7,6.8-6,6.8h-37.9c-3.3,0-6-3-6-6.8l0,0c0-3.8,2.7-6.8,6-6.8h37.9
							C615.8,989.1,618.5,992.2,618.5,995.9L618.5,995.9z"/>
					</g>
				</g>
				<path class="st7" d="M877.3,810.5c-0.9-1.6-2.4-2.6-4.1-2.6H323.3c-1.7,0-3.2,1-4.1,2.6c-0.9,1.6-0.9,3.6-0.1,5.3l35.9,75.4
					c0.8,1.8,2.5,2.8,4.2,2.8h478.2c1.8,0,3.4-1.1,4.2-2.8l35.9-75.4C878.2,814.1,878.1,812.1,877.3,810.5z"/>
				<g>
					<path class="st8" d="M448.6,878.9h-46.4c-5.5,0-9.9-5-9.9-11.2c0-6.2,4.4-11.2,9.9-11.2h46.4c5.5,0,9.9,5,9.9,11.2
						C458.5,873.9,454.1,878.9,448.6,878.9z"/>
					<path class="st8" d="M479.5,878.9h-6.6c-5.5,0-9.9-5-9.9-11.2c0-6.2,4.4-11.2,9.9-11.2h6.6c5.5,0,9.9,5,9.9,11.2
						C489.4,873.9,485,878.9,479.5,878.9z"/>
				</g>
				<g>
					<path class="st8" d="M741.7,857.5h42.4c5,0,9.1,4.6,9.1,10.2s-4.1,10.2-9.1,10.2h-42.4c-5,0-9.1-4.6-9.1-10.2
						S736.7,857.5,741.7,857.5z"/>
					<path class="st8" d="M713.4,857.5h6.1c5,0,9.1,4.6,9.1,10.2s-4.1,10.2-9.1,10.2h-6.1c-5,0-9.1-4.6-9.1-10.2
						S708.4,857.5,713.4,857.5z"/>
				</g>
				<g>
					<path class="st8" d="M613,860.3c0,6.1-4.4,11.1-9.8,11.1h-27.5c-5.4,0-9.8-5-9.8-11.1l0,0c0-6.1,4.4-11.1,9.8-11.1h27.5
						C608.6,849.2,613,854.2,613,860.3L613,860.3z"/>
					<path class="st8" d="M639.6,872.5c0,6.3-4.6,11.5-10.2,11.5h-28.1c-5.6,0-10.2-5.1-10.2-11.5l0,0c0-6.3,4.6-11.5,10.2-11.5
						h28.1C635,861,639.6,866.2,639.6,872.5L639.6,872.5z"/>
				</g>
				<g>
					<path class="st9" d="M879.4,837.2c0,2.3-1.6,4.1-3.7,4.1H314.5c-2,0-3.7-1.8-3.7-4.1v-46.1c0-2.3,1.6-4.1,3.7-4.1h561.2
						c2,0,3.7,1.8,3.7,4.1V837.2z"/>
					<path class="st10" d="M875.7,787h-3.8v42.7c0,2.3-1.6,4.1-3.7,4.1H310.8v3.5c0,2.3,1.6,4.1,3.7,4.1h561.2c2,0,3.7-1.8,3.7-4.1
						v-46.1C879.4,788.8,877.7,787,875.7,787z"/>
					<g>
						<path class="st11" d="M364.3,811.2h-26c-3.1,0-5.6-2.8-5.6-6.3c0-3.5,2.5-6.3,5.6-6.3h26c3.1,0,5.6,2.8,5.6,6.3
							C369.9,808.4,367.4,811.2,364.3,811.2z"/>
						<path class="st11" d="M381.7,811.2H378c-3.1,0-5.6-2.8-5.6-6.3c0-3.5,2.5-6.3,5.6-6.3h3.7c3.1,0,5.6,2.8,5.6,6.3
							C387.2,808.4,384.7,811.2,381.7,811.2z"/>
					</g>
				</g>
			</g>
			<g class="st0">
				<polygon class="st13" points="619.8,700.9 571.6,700.9 570.4,540 618.6,540.1 				"/>
				<polygon class="st13" points="594.5,669.6 515.5,754.5 674.7,754.8 594.5,669.6 515.5,754.5 674.7,754.8 				"/>
				<g class="st14">
					<path class="st12" d="M487.6,545.2c-6.2-0.4-151.5-10.5-152.2-117.3c-0.2-26.9,7.3-48.7,22.3-64.9
						c34.4-37.3,96.4-29.2,99.1-28.8l-2.7,31.1c-0.5-0.1-53.2-6.8-79,21.1c-9.3,10.2-13.8,23.7-13.7,41.5
						c0.5,77.1,126.1,85.9,127.3,85.9L487.6,545.2z"/>
					<path class="st12" d="M704.2,545.5c6.2-0.4,151.3-10,150.6-116.8c-0.2-26.9-8-48.8-23.2-65c-34.9-37.4-96.8-29.5-99.5-29.2
						l3.1,31.2c0.5-0.1,53.1-6.7,79.3,21.4c9.5,10.2,14.2,23.8,14.3,41.6c0.5,77.1-124.9,85.5-126.1,85.5L704.2,545.5z"/>
				</g>
				<path class="st13" d="M418,280.1c-5.5,0-10.1,4.4-10.3,9.9c-0.2,5.9-0.2,11.9-0.2,17.9c1.2,178.5,86.1,323.3,189.7,323.5
					c103.6,0.2,186.6-144.4,185.4-322.9c0-6.1-0.2-12.1-0.4-18c-0.2-5.5-4.7-9.8-10.2-9.8L418,280.1z"/>
				<g class="st14">
					<path class="st11" d="M477.5,496.1c-4.7,0-9.2-2.7-11.2-7.3c-16.3-37.5-26.2-81.6-28.7-127.7c-0.4-6.7,4.8-12.5,11.5-12.8
						c6.7-0.4,12.5,4.8,12.8,11.5c2.3,43.2,11.6,84.5,26.7,119.4c2.7,6.2-0.2,13.4-6.3,16C480.8,495.8,479.2,496.1,477.5,496.1z"/>
					<path class="st11" d="M449.4,342c-0.1,0-0.2,0-0.3,0c-6.7-0.1-12.1-5.7-11.9-12.4c0.1-3.4,0.2-6.8,0.3-10.5
						c0.3-6.7,6-11.9,12.7-11.7c6.7,0.3,11.9,6,11.7,12.7c-0.2,3.5-0.3,6.7-0.3,9.9C461.4,336.7,456,342,449.4,342z"/>
				</g>
				<g class="st14">
					<g>
						<g>
							<g>
								<polygon class="st11" points="510,554.1 510.6,554.4 550.3,529.4 556.8,576 557.3,576.2 616.1,450.3 568.7,428.3 								
									"/>
							</g>
							<g>
								<polygon class="st11" points="680.2,554.1 679.6,554.4 639.8,529.4 633.4,576 632.8,576.2 574.1,450.3 621.5,428.3 								
									"/>
							</g>
						</g>
					</g>
					
						<ellipse transform="matrix(0.7071 -0.7071 0.7071 0.7071 -119.036 542.2978)" class="st11" cx="595.1" cy="414.8" rx="85.1" ry="85.1"/>
					<path class="st12" d="M664.2,414.8c0,38.1-30.9,69.1-69.1,69.1c-38.1,0-69.1-30.9-69.1-69.1c0-38.1,30.9-69.1,69.1-69.1
						C633.2,345.8,664.2,376.7,664.2,414.8z"/>
					<g>
						<g>
							<path class="st11" d="M608.1,457.6h-18.8v-62.7h-7.2v-12.5c2.7,0,5-1.2,6.9-3.5c1.9-2.3,2.8-4.6,2.8-6.9h16.2V457.6z"/>
						</g>
					</g>
				</g>
				<path class="st13" d="M695.1,785.1c0,1-0.8,1.9-1.8,1.9H496.9c-1,0-1.8-0.8-1.8-1.9v-29.2c0-1,0.8-1.9,1.8-1.9h196.5
					c1,0,1.8,0.8,1.8,1.9V785.1z"/>
			</g>
		</g>
		<path class="st2" d="M663.8,972.4h147.5c-1.6-7.4-7.3-13.2-14.6-15.1c0.4-1.6,0.6-3.3,0.6-5.1c0-11.5-9.3-20.8-20.8-20.8
			c-3.3,0-6.4,0.8-9.1,2.1c-4.4-9.8-14.2-16.5-25.7-16.5c-12.1,0-22.5,7.7-26.4,18.4c-3.5-2.3-7.6-3.6-12-3.6
			c-12.1,0-21.9,9.8-21.9,21.9c0,1.1,0.1,2.1,0.2,3.1C672.8,957.6,665.6,964,663.8,972.4z"/>
		<path class="st2" d="M373.4,950.9h175.9c-1.9-8.8-8.7-15.8-17.5-18c0.5-1.9,0.8-4,0.8-6.1c0-13.7-11.1-24.8-24.8-24.8
			c-3.9,0-7.6,0.9-10.9,2.5c-5.3-11.6-17-19.7-30.6-19.7c-14.5,0-26.8,9.1-31.5,22c-4.1-2.7-9-4.3-14.3-4.3
			c-14.4,0-26.1,11.7-26.1,26.1c0,1.3,0.1,2.5,0.3,3.7C384.2,933.3,375.6,940.9,373.4,950.9z"/>
	</g>
	<g>
		<circle class="st12" cx="591.7" cy="557.9" r="225.7"/>
		
			<ellipse transform="matrix(0.7071 -0.7071 0.7071 0.7071 -221.1561 581.7946)" class="st11" cx="591.7" cy="557.9" rx="184.7" ry="184.7"/>
		<circle class="st12" cx="591.7" cy="557.9" r="140.1"/>
		
			<ellipse transform="matrix(0.7071 -0.7071 0.7071 0.7071 -221.1562 581.7946)" class="st11" cx="591.7" cy="557.9" rx="101.7" ry="101.7"/>
		
			<ellipse transform="matrix(0.4644 -0.8856 0.8856 0.4644 -177.1343 822.8147)" class="st12" cx="591.7" cy="557.9" rx="60.7" ry="60.7"/>
		<ellipse transform="matrix(0.993 -0.1184 0.1184 0.993 -61.8772 73.9678)" class="st11" cx="591.7" cy="557.9" rx="33" ry="33"/>
		<g>
			<polygon class="st15" points="721.7,500.8 741.7,421.7 861.8,370.3 837.3,445.8 909,478.4 791.4,533.6 			"/>
			<g>
				<path class="st16" d="M587.9,571.6c-3.9-1.4-7.2-4.3-9-8.4c-3.5-7.9,0-17.2,7.9-20.7l261.4-117c7.9-3.5,17.2,0,20.7,7.9
					c3.5,7.9,0,17.2-7.9,20.7l-261.4,117C595.8,572.9,591.6,572.9,587.9,571.6z"/>
			</g>
		</g>
	</g>
</g>
</svg>
